<svg width="40" height="40" viewBox="0 0 40 40" fill="none" xmlns="http://www.w3.org/2000/svg">
<path fill-rule="evenodd" clip-rule="evenodd" d="M2.84351 9.99954C2.82286 10.0575 2.80559 10.106 2.79163 10.1377C2.66727 10.4198 2.57528 10.6825 2.57528 11.0161C2.57528 11.4751 2.93544 12.0339 3.24141 12.3596C3.27205 12.3922 3.3053 12.4264 3.33985 12.4619C3.52298 12.6504 3.74294 12.8767 3.80791 13.106C3.86468 13.3063 4.1448 13.5758 4.31747 13.6629C4.5401 13.7751 4.79704 13.7669 5.04821 13.7588C5.11268 13.7568 5.17677 13.7547 5.23981 13.7547C5.32733 13.7547 5.42046 13.7574 5.51645 13.7601C5.84082 13.7693 6.19778 13.7794 6.48098 13.6916C6.48924 13.689 6.49781 13.6863 6.50664 13.6836C6.7329 13.6129 7.13573 13.4871 7.13573 13.7806C7.13573 14.0062 6.95679 14.1327 6.78344 14.2554C6.74628 14.2817 6.70938 14.3078 6.67456 14.3346C6.52792 14.4477 6.41666 14.5953 6.30554 14.7427C6.22675 14.8472 6.14803 14.9517 6.05682 15.0437C5.90394 15.1978 5.74049 15.3393 5.57714 15.4807C5.30808 15.7137 5.0393 15.9464 4.81849 16.235C4.72529 16.3568 4.63184 16.4773 4.53875 16.5974C4.12454 17.1315 3.71735 17.6566 3.36951 18.2502C3.2624 18.433 3.16389 18.6199 3.06553 18.8065C2.96042 19.006 2.85548 19.2051 2.74039 19.3985C2.67961 19.5006 2.61433 19.6023 2.54876 19.7044C2.43074 19.8882 2.3118 20.0734 2.21659 20.2654C2.09142 20.5179 1.92754 20.7657 1.75542 20.9889C1.64183 21.1361 1.55164 21.3077 1.4614 21.4793C1.38647 21.6218 1.31151 21.7643 1.22308 21.8931C1.06986 22.1163 0.873832 22.7291 0.685549 23.3177C0.584552 23.6335 0.485784 23.9422 0.39705 24.1801C-0.195905 25.77 -0.571011 29.631 2.67221 32.3564C6.72623 35.7632 8.75324 36.4446 15.5099 35.7632C22.0224 35.1065 25.3963 32.5508 30.4718 28.7063C30.6622 28.5621 30.855 28.4161 31.0504 28.2683C36.4557 24.1801 39.1584 18.0478 39.8341 15.3225C40.5098 12.5971 39.1584 7.1461 35.1044 5.78338C31.8519 4.69008 29.4692 5.78967 26.9095 6.97092C26.2787 7.26201 25.6372 7.55805 24.9693 7.82746C22.2667 8.91763 18.4379 12.8241 16.8613 14.641V12.9376C16.9086 12.7945 16.9371 12.6869 16.9616 12.5944C17.0166 12.387 17.0514 12.2555 17.2331 11.9692C17.443 11.6386 17.5377 11.2991 17.5377 10.9128C17.5377 10.8266 17.5244 10.741 17.5113 10.6572C17.4987 10.5768 17.4865 10.498 17.4865 10.4219C17.4865 10.2154 16.8608 9.8716 16.8608 9.8716C16.8608 9.60246 16.8272 9.52823 16.7752 9.41327C16.7451 9.34677 16.7089 9.26663 16.6694 9.12726C16.6653 9.11292 16.6611 9.09794 16.6567 9.08237C16.5583 8.73309 16.3772 8.09029 16.0744 7.91583C16.0258 7.88781 15.9759 7.86133 15.9259 7.83482C15.7935 7.76457 15.6606 7.69411 15.5506 7.59431C15.4849 7.53462 15.0731 7.67148 14.9756 7.72062C14.6925 7.86337 14.3817 7.90394 14.0724 7.94431C13.8611 7.9719 13.6504 7.9994 13.4498 8.05936C13.2863 8.10821 13.1011 8.12204 12.9176 8.13575C12.7877 8.14545 12.6586 8.15509 12.5388 8.17706C12.2374 8.23232 11.9467 8.31957 11.6544 8.40728C11.5416 8.44112 11.4286 8.47502 11.3147 8.50719C10.7352 8.67083 10.0923 8.69091 9.49282 8.69091C8.98791 8.69091 8.49713 8.79879 8.00498 8.90697C7.97998 8.91246 7.95497 8.91796 7.92997 8.92344C7.69793 8.9743 7.44869 8.96646 7.20066 8.95865C6.92628 8.95002 6.6534 8.94143 6.40697 9.01243C6.1475 9.08719 5.82227 9.09221 5.52405 9.09681C5.42101 9.0984 5.32119 9.09994 5.22843 9.10429C4.93443 9.11808 4.64715 9.16149 4.35928 9.20499C4.00901 9.25792 3.65786 9.31098 3.29266 9.31098C3.0792 9.33789 2.93103 9.75384 2.84351 9.99954ZM10.8365 20.8971C10.7963 21.1811 10.7386 21.8617 10.9276 22.0999C12.0755 22.5753 13.1094 23.6847 13.4829 24.1801C14.3838 23.9529 16.591 23.4987 18.2126 23.4987C19.4977 23.4987 22.9553 23.2248 25.4865 23.0244C26.9478 22.9086 28.1004 22.8173 28.3477 22.8173C29.0234 22.8173 28.3477 18.7292 27.672 18.0478C27.1836 17.5553 23.8706 18.1309 21.8167 18.4877C21.0292 18.6245 20.4269 18.7292 20.2396 18.7292C19.6991 18.7292 20.0144 18.275 20.2396 18.0479C24.0684 13.5055 32.5368 5.37466 35.7801 9.19027C39.8341 13.9598 28.3477 24.8615 22.2667 28.9497C16.1856 33.0378 10.1044 33.7192 6.05035 32.3564C2.80713 31.2663 4.24856 26.4513 5.37467 24.1801C5.67852 23.5673 6.01871 22.7518 6.26016 22.1729C6.39299 21.8545 6.49593 21.6077 6.54651 21.5056C6.64337 21.3103 6.82144 21.0321 6.9964 20.7587C7.15516 20.5106 7.31136 20.2665 7.40202 20.092C7.50468 19.8943 7.66599 19.7624 7.83085 19.6275C7.91463 19.5589 7.99932 19.4897 8.07769 19.4106C8.70906 18.7739 9.29074 18.2684 9.88693 17.7502C10.336 17.3598 10.7933 16.9624 11.2863 16.4963C11.3183 16.466 11.7366 16.0955 11.7475 16.1834C11.7558 16.2509 11.7396 16.3081 11.723 16.3668C11.7138 16.3993 11.7045 16.4322 11.6991 16.4676C11.6616 16.7135 11.6515 16.9672 11.645 17.2168C11.6391 17.4431 11.57 17.6916 11.5034 17.9311C11.4705 18.0496 11.4382 18.1658 11.4144 18.2761C11.3753 18.4573 11.344 18.6403 11.3127 18.8233C11.2744 19.0466 11.2362 19.27 11.1838 19.4904C11.1444 19.6565 11.0971 19.824 11.0496 19.9924C10.9647 20.2928 10.8792 20.5958 10.8365 20.8971Z" fill="white"/>
</svg>
