<svg width="65" height="36" viewBox="0 0 65 36" fill="none" xmlns="http://www.w3.org/2000/svg">
<path d="M32.5 36C23.9768 36 15.9485 34.2469 9.89406 31.0657C3.51591 27.706 0 23.065 0 17.9968C0 12.9286 3.51591 8.29396 9.89406 4.9343C15.9549 1.75314 23.9831 0 32.5 0C41.0169 0 49.0515 1.75314 55.1059 4.9343C61.4904 8.28759 65 12.9286 65 17.9968C65 23.065 61.4841 27.706 55.1059 31.0593C49.0515 34.2405 41.0232 35.9936 32.5 35.9936V36ZM32.5 2.96441C14.3556 2.96441 2.17047 10.7356 2.17047 17.9968C2.17047 25.258 14.3619 33.0356 32.5063 33.0356C50.6508 33.0356 62.8422 25.258 62.8422 17.9968C62.8422 10.7356 50.6444 2.96441 32.5 2.96441Z" fill="white"/>
</svg>
