<svg width="64" height="64" viewBox="0 0 64 64" fill="none" xmlns="http://www.w3.org/2000/svg">
<path d="M46.2999 14.6203C47.6953 14.4468 48.8635 14.4633 49.9005 14.7218C49.9409 14.7319 49.9816 14.7413 50.0216 14.7521C50.5274 14.8889 51.0027 15.085 51.4581 15.3478L51.7218 15.5099C52.1197 15.7675 52.4794 16.0686 52.8106 16.4162C52.8289 16.4354 52.8481 16.4543 52.8663 16.4738C52.9758 16.5917 53.0811 16.7162 53.1847 16.8449C53.3433 17.0422 53.4963 17.2519 53.6427 17.4758C53.7498 17.6397 53.8535 17.8116 53.9552 17.9904C54.026 18.115 54.0966 18.2431 54.1651 18.3752C54.3168 18.6674 54.4627 18.9787 54.6056 19.3088C55.0039 20.2289 55.373 21.3005 55.752 22.5431C56.2171 24.068 56.6975 25.8514 57.255 27.9318V27.9338L59.3263 35.6613L59.5772 36.6037C59.7895 37.3978 59.9884 38.1466 60.171 38.8537C60.2411 39.1252 60.3089 39.391 60.3741 39.6506C60.9285 41.8568 61.3016 43.6393 61.4083 45.1457C61.4267 45.4066 61.4365 45.6594 61.4386 45.9045C61.4499 47.2808 61.1969 48.4201 60.5977 49.4582C59.9903 50.5102 59.1154 51.3068 57.8927 51.9914C57.8342 52.0241 57.775 52.0568 57.7149 52.089C57.4598 52.2259 57.1902 52.3582 56.9054 52.4875C56.4319 52.7023 55.9162 52.907 55.3556 53.1095C54.4149 53.4495 53.3475 53.7807 52.1378 54.1271C51.6415 54.2692 51.1214 54.4153 50.5763 54.5646L48.0118 55.257L40.2852 57.3273L37.7188 58.0099C37.405 58.0922 37.0984 58.1708 36.7999 58.2472C31.7565 59.5377 28.858 59.9665 26.4874 58.5978C24.1236 57.2325 23.0456 54.519 21.6475 49.5314L21.0235 47.2511L20.6895 46.0138L18.6192 38.2863C16.7283 31.2291 15.7534 27.5894 17.2003 24.7599L17.3477 24.4875C18.7976 21.9769 21.7683 20.9157 27.3682 19.382L29.9327 18.6906L37.6593 16.6203L40.2266 15.9367C42.6759 15.2949 44.6473 14.8258 46.2999 14.6203ZM38.1768 47.9914C36.942 45.5214 33.9388 44.5202 31.4688 45.755C28.9992 46.99 27.9977 49.9932 29.2325 52.4631C30.4673 54.9327 33.4707 55.9339 35.9405 54.6994C38.4104 53.4646 39.4115 50.4613 38.1768 47.9914ZM50.6993 41.7316C49.4644 39.2617 46.4612 38.2604 43.9913 39.4953C41.5216 40.7303 40.5202 43.7335 41.755 46.2033C42.9898 48.673 45.9932 49.6741 48.463 48.4396C50.9328 47.2048 51.934 44.2015 50.6993 41.7316ZM11.9835 5.84294C14.8531 4.18656 18.4966 5.16249 25.7813 7.11442L33.5079 9.18474C37.7764 10.3285 40.7941 11.1386 42.8946 12.1896C41.1723 12.5723 39.2436 13.0901 37.0938 13.6662L36.8829 13.7218L29.1563 15.7922L28.9473 15.8488C25.4798 16.7778 22.5875 17.5528 20.3741 18.4767C18.1822 19.3918 16.2886 20.595 14.9991 22.5802L14.7501 22.9884C13.4619 25.2197 13.3306 27.6026 13.6544 30.1154C13.961 32.4941 14.736 35.3864 15.6651 38.8537L15.7218 39.0627L17.6749 46.3527L15.4278 45.7511C8.14276 43.7991 4.49964 42.823 2.84286 39.9533C1.18671 37.0837 2.16233 33.4402 4.11434 26.1554L6.18465 18.4279C8.1367 11.143 9.11381 7.49973 11.9835 5.84294ZM31.9171 35.4699C30.6822 33 27.679 31.9989 25.2091 33.2336C22.7391 34.4684 21.7379 37.4716 22.9727 39.9416C24.2077 42.4112 27.211 43.4127 29.6807 42.1779C32.1504 40.9431 33.1515 37.9397 31.9171 35.4699ZM44.4386 29.2101C43.2037 26.7402 40.2005 25.7389 37.7306 26.9738C35.2609 28.2088 34.2594 31.212 35.4942 33.6818C36.7291 36.1515 39.7324 37.1526 42.2022 35.9181C44.6721 34.6833 45.6732 31.68 44.4386 29.2101Z" fill="white"/>
</svg>
