<svg width="40" height="40" viewBox="0 0 40 40" fill="none" xmlns="http://www.w3.org/2000/svg">
<path d="M27.6929 6.99559C32.1004 6.68738 36.0794 12.2442 36.5803 19.4064C37.081 26.5683 33.9144 32.6243 29.507 32.9327C25.0995 33.2409 21.1205 27.6841 20.6197 20.5219C20.119 13.3599 23.2856 7.30398 27.6929 6.99559ZM28.2446 10.2308C25.3481 10.3577 23.2018 15.073 23.4273 20.2382C23.6529 25.4035 26.2212 30.3383 29.1178 30.2118C32.0144 30.0849 34.1429 24.9447 33.9174 19.7796C33.6918 14.6143 31.1413 10.1043 28.2446 10.2308Z" fill="white"/>
<path d="M34.7489 17.9612C34.8356 19.6158 33.5646 21.0274 31.91 21.1141C30.2554 21.2008 28.8438 19.9298 28.7571 18.2752C28.6704 16.6206 29.9414 15.209 31.596 15.1223C33.2506 15.0356 34.6622 16.3066 34.7489 17.9612Z" fill="white"/>
<path d="M12.5065 6.99559C16.914 7.30379 20.0809 13.3603 19.58 20.5225C19.0791 27.6844 15.1005 33.2408 10.6932 32.9327C6.28564 32.6245 3.11873 26.5681 3.61956 19.4059C4.12046 12.2439 8.09907 6.68759 12.5065 6.99559ZM12.29 10.2745C9.39449 10.1228 6.80507 14.6109 6.53448 19.7742C6.26399 24.9373 8.34757 30.0958 11.243 30.2476C14.1385 30.3992 16.75 25.4866 17.0206 20.3235C17.2912 15.1605 15.1853 10.4267 12.29 10.2745Z" fill="white"/>
<path d="M18.4349 18.2747C18.3482 19.9293 16.9366 21.2003 15.282 21.1136C13.6274 21.0269 12.3564 19.6153 12.4431 17.9607C12.5298 16.3061 13.9414 15.0351 15.596 15.1219C17.2506 15.2086 18.5216 16.6202 18.4349 18.2747Z" fill="white"/>
</svg>
