<svg width="40" height="40" viewBox="0 0 40 40" fill="none" xmlns="http://www.w3.org/2000/svg">
<path d="M17.5549 4.99994C18.5584 5.46164 19.0045 6.65449 18.6625 7.70482C18.627 7.81392 18.5913 7.92602 18.5555 8.04102C26.3667 2.72288 35.1314 4.40477 38.4764 10.1982C40.4941 13.6929 40.1745 18.3679 38.411 22.5977C36.6196 26.8942 33.2091 31.0965 28.4305 33.8555C23.6458 36.6179 18.3342 37.4273 13.7616 36.7988C9.40243 36.1996 5.37963 34.229 3.33288 30.9893L3.14148 30.6719C1.21139 27.3287 1.30244 23.3859 2.5028 19.748C3.40475 17.0146 5.6781 13.6299 8.4547 11.0068C9.93077 9.61238 11.9258 11.0695 11.6114 13.0756C11.5201 13.6583 11.2368 14.1004 10.82 14.5177C8.02399 17.3161 2.78495 24.7532 6.02734 29.3164C10.0658 35 21.1366 33.6509 26.4305 30.3916C36 24.5 39.1395 16.2302 36.1387 11.1328C34 7.5 28.4305 7 23.6387 9.5C23.8359 9.46333 24.3353 9.43483 24.8762 9.4142C25.8654 9.37648 26.685 10.1446 26.7443 11.1328C26.6879 12.3864 25.6461 13.4093 24.4419 13.7624C23.4189 14.0624 22.2597 14.5388 21.2089 15.2021C19.3372 16.3836 17.6053 17.8135 16.6053 18.75C15.3501 19.9254 13.2947 19.0733 13.2391 17.3545C13.1953 16.0014 13.3291 14.0425 13.4608 12.7754C13.7926 10.0963 14.4231 7.72702 15.0078 6.02465C15.3666 4.98006 16.5515 4.53829 17.5549 4.99994Z" fill="white"/>
</svg>
