<svg width="40" height="40" viewBox="0 0 40 40" fill="none" xmlns="http://www.w3.org/2000/svg">
<path d="M6.4355 2.67898C8.56573 1.39901 11.3103 2.08301 16.7988 3.45144L20.0107 4.25222C22.329 4.83026 24.1577 5.28695 25.5932 5.7818C26.265 6.0134 26.601 6.1292 26.5867 6.35712C26.5725 6.58504 26.2118 6.66079 25.4906 6.81229C24.4165 7.03793 23.2344 7.30629 21.9228 7.60379C21.5084 7.6978 21.1046 7.7915 20.7158 7.88504C20.3234 7.97941 19.9176 8.08004 19.5019 8.18582C12.8974 9.86642 9.59509 10.7076 7.89936 13.5188C6.2039 16.33 7.04372 19.8197 8.72261 26.7981L9.02729 28.0667C9.08683 28.3141 9.14557 28.5574 9.20345 28.7965C9.30795 29.2281 9.3602 29.444 9.2397 29.5631C9.11921 29.6823 8.9042 29.6278 8.47417 29.5186C4.11587 28.4125 1.81744 27.6631 0.678661 25.7678C-0.60126 23.6376 0.0836411 20.8932 1.4521 15.4046L2.25288 12.1927C3.62139 6.70387 4.30522 3.95901 6.4355 2.67898Z" fill="white"/>
<path d="M23.1293 10.2513C28.6179 8.88281 31.3624 8.19881 33.4926 9.47879C35.6228 10.7588 36.3067 13.5037 37.6752 18.9925L38.476 22.2034C39.8445 27.6922 40.5295 30.4374 39.2495 32.5677C37.9694 34.6979 35.2245 35.3818 29.7358 36.7503L26.5239 37.5511C21.0352 38.9195 18.2909 39.6035 16.1606 38.3235C14.0305 37.0435 13.3464 34.2994 11.978 28.8108L11.1762 25.5989C9.80777 20.1104 9.12397 17.3659 10.4038 15.2356C11.6838 13.1053 14.4286 12.4206 19.9174 11.052L23.1293 10.2513ZM24.4907 31.2483C23.6876 29.6426 21.7352 28.9915 20.1293 29.7942C18.5233 30.5972 17.8723 32.5505 18.6752 34.1565C19.4782 35.7623 21.4306 36.4133 23.0366 35.6106C24.6426 34.8077 25.2936 32.8544 24.4907 31.2483ZM32.6342 27.178C31.8313 25.572 29.878 24.921 28.2719 25.7239C26.666 26.5269 26.015 28.4793 26.8178 30.0852C27.6208 31.6913 29.5741 32.3423 31.1801 31.5393C32.7857 30.7363 33.4368 28.7838 32.6342 27.178ZM20.4204 23.1067C19.6174 21.5007 17.6641 20.8497 16.0581 21.6526C14.4525 22.4556 13.8015 24.4081 14.604 26.014C15.4069 27.6199 17.3602 28.2718 18.9663 27.469C20.5723 26.6661 21.2233 24.7128 20.4204 23.1067ZM28.5629 19.0354C27.7599 17.4295 25.8066 16.7784 24.2006 17.5813C22.5947 18.3843 21.9436 20.3376 22.7465 21.9436C23.5495 23.5496 25.5028 24.2007 27.1088 23.3977C28.7149 22.5948 29.3659 20.6415 28.5629 19.0354Z" fill="white"/>
</svg>
